<?xml version="1.0" standalone="no"?>
<!DOCTYPE svg PUBLIC "-//W3C//DTD SVG 20010904//EN"
 "http://www.w3.org/TR/2001/REC-SVG-20010904/DTD/svg10.dtd">
<svg version="1.0" xmlns="http://www.w3.org/2000/svg"
 width="300.000000pt" height="424.000000pt" viewBox="0 0 300.000000 424.000000"
 preserveAspectRatio="xMidYMid meet">
<metadata>
Created by potrace 1.10, written by Peter Selinger 2001-2011
</metadata>
<g transform="translate(0.000000,424.000000) scale(0.100000,-0.100000)"
fill="#000000" stroke="none">
<path d="M1246 3080 c-370 -59 -704 -317 -851 -658 -90 -207 -115 -454 -69
-674 78 -380 363 -704 726 -828 142 -48 190 -55 378 -54 155 1 186 4 272 27
380 101 684 397 793 773 79 274 45 595 -92 844 -145 265 -409 471 -701 547
-77 20 -128 25 -247 28 -82 2 -177 0 -209 -5z m395 -26 c314 -59 614 -287 762
-579 82 -164 117 -310 117 -495 0 -310 -105 -565 -325 -786 -155 -155 -350
-259 -563 -300 -97 -18 -326 -18 -424 1 -380 73 -710 360 -832 727 -132 393
-31 831 259 1123 159 161 354 268 565 310 94 19 339 18 441 -1z"/>
<path d="M1315 3050 c-128 -13 -241 -46 -370 -110 -230 -112 -397 -283 -506
-514 -203 -435 -81 -977 290 -1280 425 -348 1021 -331 1428 39 137 123 258
328 310 520 24 90 27 117 27 270 0 153 -3 180 -27 270 -138 515 -627 856
-1152 805z m315 -56 c306 -63 579 -272 718 -549 85 -170 117 -316 109 -510 -9
-266 -98 -479 -281 -672 -178 -188 -398 -297 -653 -323 -427 -44 -838 183
-1033 570 -292 578 21 1288 645 1465 167 47 328 53 495 19z"/>
<path d="M1319 2943 c-2 -19 3 -90 7 -105 3 -10 11 -18 18 -18 18 0 38 48 30
74 -11 36 -52 73 -55 49z m41 -70 c0 -12 -4 -25 -10 -28 -6 -4 -10 11 -10 37
0 31 3 39 10 28 5 -8 10 -25 10 -37z"/>
<path d="M1390 2890 c0 -63 10 -77 47 -67 16 4 15 6 -4 12 -27 9 -31 42 -5 48
16 4 16 5 0 6 -26 2 -24 41 2 41 11 0 20 5 20 10 0 6 -13 10 -30 10 l-30 0 0
-60z"/>
<path d="M1470 2935 c-11 -13 -9 -22 6 -50 14 -27 16 -37 6 -47 -9 -9 -12 -8
-12 5 0 9 -4 17 -10 17 -12 0 -13 -10 -1 -28 5 -8 17 -12 27 -10 24 4 31 50
10 68 -17 14 -22 40 -7 40 5 0 11 -6 14 -12 2 -7 7 -10 11 -7 10 9 -4 39 -19
39 -7 0 -18 -7 -25 -15z"/>
<path d="M1540 2925 c-10 -12 -9 -19 4 -40 27 -41 18 -72 -13 -42 -10 10 -12
8 -9 -8 4 -25 37 -26 52 -3 8 13 7 24 -6 46 -11 18 -14 33 -8 42 8 13 10 12
10 -2 0 -10 5 -18 11 -18 16 0 6 34 -12 38 -9 1 -22 -4 -29 -13z"/>
<path d="M1194 2915 c-4 -9 -2 -21 4 -27 6 -6 8 -23 5 -38 -6 -32 7 -43 40
-35 19 5 23 11 19 27 -5 20 -6 20 -18 3 -8 -10 -17 -15 -21 -11 -4 4 -3 10 2
14 6 4 10 23 10 42 0 25 -5 36 -18 38 -9 2 -20 -4 -23 -13z"/>
<path d="M1601 2893 c-16 -56 -13 -81 8 -93 25 -13 31 -13 31 0 0 6 -7 10 -15
10 -9 0 -15 10 -15 26 0 20 4 25 16 20 14 -5 15 -4 4 9 -15 19 -5 49 15 41 8
-3 17 -1 20 3 5 9 -17 21 -40 21 -8 0 -19 -17 -24 -37z"/>
<path d="M1672 2873 c-21 -82 -21 -80 2 -80 23 0 25 5 29 71 3 52 -19 59 -31
9z"/>
<path d="M1100 2875 c0 -25 -2 -27 -11 -12 -12 20 -29 23 -29 5 0 -7 12 -35
25 -63 23 -45 28 -41 10 10 -7 20 -6 20 9 1 12 -15 16 -16 17 -5 0 8 5 4 11
-8 6 -13 15 -23 20 -23 11 0 12 -3 -22 65 -26 54 -29 57 -30 30z"/>
<path d="M1730 2890 c0 -5 4 -10 10 -10 5 0 3 -19 -5 -41 -17 -47 -20 -78 -6
-63 5 5 14 26 21 47 7 22 21 42 33 46 19 7 18 9 -13 19 -40 14 -40 14 -40 2z"/>
<path d="M1000 2851 c0 -5 7 -28 15 -52 9 -24 13 -49 11 -56 -7 -17 -31 -17
-45 1 -10 11 -8 17 6 26 16 10 16 10 -3 5 -29 -8 -40 22 -18 46 20 22 15 24
-21 7 -30 -14 -30 -12 4 -68 30 -49 50 -59 74 -36 8 8 18 12 22 8 4 -4 4 8 0
26 -7 35 9 46 20 12 3 -11 11 -20 16 -20 13 0 12 4 -22 59 -28 45 -59 67 -59
42z"/>
<path d="M1806 2851 c-4 -6 -6 -26 -4 -46 1 -19 -3 -40 -10 -47 -9 -9 -12 -7
-12 12 0 17 -3 21 -10 14 -15 -15 -1 -44 21 -44 26 0 41 33 30 63 -10 24 -6
37 10 37 5 0 6 -7 3 -15 -4 -8 -1 -15 6 -15 18 0 7 44 -12 48 -9 2 -19 -1 -22
-7z"/>
<path d="M870 2772 c0 -13 61 -92 71 -92 6 0 8 4 4 9 -3 5 3 12 12 14 17 4 17
5 1 6 -10 0 -18 9 -18 19 0 11 -8 26 -18 35 -19 18 -52 23 -52 9z"/>
<path d="M1310 2759 c-192 -29 -376 -132 -496 -278 -62 -75 -136 -217 -160
-306 -34 -131 -29 -309 13 -440 18 -59 29 -73 44 -58 7 7 3 31 -13 79 -20 60
-23 89 -23 219 0 132 3 158 24 220 79 231 231 395 446 480 198 78 405 71 602
-22 50 -23 73 -24 73 -2 0 16 -117 66 -202 88 -95 25 -223 33 -308 20z"/>
<path d="M824 2745 c-9 -23 15 -72 43 -91 23 -15 27 -15 41 0 13 12 13 19 4
28 -9 9 -12 8 -12 -7 -1 -17 -5 -15 -30 13 -33 35 -39 55 -15 46 8 -4 15 -2
15 4 0 5 -7 13 -16 16 -22 8 -24 8 -30 -9z"/>
<path d="M727 2662 c-16 -17 -14 -21 27 -61 38 -38 46 -42 65 -32 11 7 21 16
21 21 0 13 -17 13 -25 0 -9 -15 -37 9 -31 26 3 8 0 11 -8 8 -7 -3 -19 3 -27
12 -11 13 -11 18 -1 21 13 5 17 23 4 23 -5 0 -16 -8 -25 -18z"/>
<path d="M680 2596 c0 -43 86 -97 104 -67 8 12 -3 41 -15 41 -4 0 -6 -7 -3
-15 13 -33 -47 0 -67 37 -10 18 -9 20 5 15 9 -4 16 -2 16 3 0 6 -9 10 -20 10
-14 0 -20 -7 -20 -24z"/>
<path d="M1354 2580 c-11 -4 -33 -22 -47 -40 -33 -39 -35 -88 -7 -180 29 -96
27 -156 -10 -214 -72 -112 -239 -127 -322 -27 -29 33 -45 103 -33 143 31 101
141 156 225 113 57 -29 69 -105 24 -144 -18 -16 -23 -26 -16 -33 31 -31 85 45
79 111 -14 136 -229 158 -314 31 -64 -94 -50 -198 38 -273 109 -93 294 -54
361 76 30 60 33 122 9 208 -28 100 -28 150 2 176 34 31 64 37 93 18 34 -22 30
-65 -9 -83 -31 -15 -27 -32 8 -32 30 0 65 44 65 80 0 57 -82 96 -146 70z"/>
<path d="M640 2561 c0 -11 88 -80 103 -81 17 0 3 17 -41 50 -56 42 -62 45 -62
31z"/>
<path d="M1791 2543 c-39 -19 -83 -76 -118 -150 -17 -36 -30 -53 -43 -53 -25
0 -37 -21 -17 -31 14 -8 10 -23 -29 -110 -62 -141 -93 -201 -116 -225 l-19
-21 -62 26 c-44 18 -80 26 -124 26 -54 0 -66 -3 -89 -27 -34 -33 -27 -71 17
-94 46 -23 155 -21 214 5 l47 21 59 -20 c99 -34 175 -22 213 32 20 28 21 72 1
88 -21 18 -35 3 -28 -30 12 -61 -49 -87 -152 -63 l-65 15 25 33 c14 18 55 97
91 176 36 79 71 150 76 157 11 13 68 17 68 5 0 -5 -19 -49 -41 -100 -41 -89
-42 -93 -25 -117 25 -38 69 -35 112 8 34 34 43 59 24 71 -5 3 -19 -9 -30 -28
-23 -38 -53 -52 -70 -32 -8 10 -2 34 26 97 46 102 51 108 80 108 15 0 24 6 24
15 0 8 -9 15 -20 15 -24 0 -25 8 -4 38 16 24 13 52 -6 52 -6 0 -19 -20 -30
-45 -18 -41 -22 -45 -55 -45 -19 0 -35 3 -35 6 0 3 14 33 32 66 38 72 81 108
130 108 62 0 79 -52 25 -78 -30 -15 -35 -30 -12 -38 21 -8 64 22 76 53 29 77
-63 129 -150 86z m-438 -589 c26 -9 47 -20 47 -24 0 -13 -68 -30 -121 -30 -59
0 -101 28 -80 54 18 21 92 21 154 0z"/>
<path d="M577 2469 c-10 -18 -15 -34 -11 -38 4 -3 9 0 11 6 3 9 18 6 53 -12
53 -27 60 -29 60 -17 0 4 -20 18 -44 31 -25 13 -46 32 -48 42 -2 16 -6 13 -21
-12z"/>
<path d="M2014 2467 c-3 -9 7 -34 24 -59 157 -229 180 -527 58 -764 -19 -38
-44 -82 -55 -98 -21 -31 -19 -46 3 -46 15 0 81 108 113 185 91 217 63 511 -68
711 -50 77 -66 93 -75 71z"/>
<path d="M540 2401 c-5 -11 -10 -24 -10 -29 0 -9 93 -52 111 -52 20 0 7 18
-16 24 -18 5 -23 11 -18 24 5 13 3 15 -7 5 -9 -8 -19 -9 -32 -2 -14 8 -16 14
-8 29 7 13 7 20 1 20 -6 0 -15 -9 -21 -19z"/>
<path d="M1500 2342 c-33 -10 -64 -51 -101 -130 -22 -46 -39 -92 -39 -101 0
-25 32 -51 61 -51 43 0 70 30 117 128 36 77 43 100 36 120 -9 26 -46 43 -74
34z m40 -48 c0 -30 -78 -182 -99 -194 -23 -12 -41 -6 -41 14 0 20 68 162 86
180 20 21 54 21 54 0z"/>
<path d="M517 2334 c-13 -14 -7 -24 26 -44 61 -38 123 -14 64 25 -28 18 -79
29 -90 19z m58 -18 c19 -8 35 -17 35 -20 0 -14 -40 -4 -61 14 -29 23 -20 25
26 6z"/>
<path d="M492 2268 c-7 -7 -8 -17 -1 -30 11 -21 31 -23 58 -6 10 6 26 8 36 4
17 -6 17 -7 -1 -21 -18 -13 -18 -14 -1 -15 25 0 33 28 13 48 -14 14 -21 15
-48 4 -21 -8 -36 -8 -42 -2 -7 7 -4 10 7 10 9 0 17 5 17 10 0 14 -23 13 -38
-2z"/>
<path d="M481 2047 c-12 -27 -21 -53 -21 -58 0 -15 50 -22 76 -11 32 15 22 40
-15 34 -16 -2 -32 1 -36 8 -5 7 2 10 21 8 34 -4 40 12 15 43 l-19 24 -21 -48z"/>
<path d="M2308 2042 c-24 -50 -24 -53 -7 -62 23 -13 45 -13 69 0 28 15 15 37
-19 32 -16 -2 -32 1 -36 8 -5 7 2 10 21 8 34 -4 40 12 16 42 l-19 24 -25 -52z"/>
<path d="M465 1960 c-10 -16 16 -31 46 -28 52 5 51 33 -2 33 -22 0 -42 -2 -44
-5z"/>
<path d="M2332 1962 c-53 -4 -52 -26 1 -30 27 -2 39 1 43 13 8 20 7 21 -44 17z"/>
<path d="M482 1886 c2 -23 8 -31 23 -31 15 0 21 8 23 31 3 28 0 32 -23 32 -23
0 -26 -4 -23 -32z"/>
<path d="M2312 1886 c2 -23 8 -31 23 -31 15 0 21 8 23 31 3 28 0 32 -23 32
-23 0 -26 -4 -23 -32z"/>
<path d="M987 1688 c-65 -136 -98 -178 -141 -178 -26 0 -46 18 -46 40 0 28 68
158 88 169 25 13 46 -7 32 -29 -14 -22 -12 -40 5 -40 20 0 37 35 33 68 -4 36
-48 52 -86 32 -30 -16 -112 -169 -112 -207 0 -37 34 -63 81 -63 71 0 95 23
155 148 50 105 55 111 74 100 23 -15 21 -26 -22 -111 -20 -40 -28 -70 -26 -95
3 -35 5 -37 41 -40 24 -2 45 2 55 12 15 13 20 13 36 0 26 -18 96 -18 123 1 19
13 22 13 27 0 6 -18 76 -21 93 -4 8 8 13 8 17 0 4 -6 25 -11 46 -11 48 0 77
32 122 135 17 39 37 78 46 88 18 20 62 23 62 3 0 -7 -20 -57 -45 -110 -50
-107 -52 -116 -30 -116 9 0 37 45 73 117 41 84 63 119 80 125 37 12 38 -15 2
-100 -40 -95 -49 -172 -26 -226 9 -21 16 -40 16 -41 0 -2 -18 -10 -40 -19 -90
-36 -170 -10 -170 54 0 19 -5 30 -14 30 -23 0 -28 -35 -12 -75 28 -67 121 -82
217 -36 l40 20 35 -24 c69 -47 186 -44 236 5 35 35 36 69 2 101 -39 37 -121
34 -202 -7 l-60 -32 -13 29 c-19 47 -6 144 30 219 17 36 31 75 31 87 0 47 -54
68 -97 38 -18 -13 -23 -13 -33 -1 -7 9 -28 14 -57 13 l-46 -2 -49 -105 c-53
-114 -72 -140 -100 -140 -27 0 -23 19 27 130 25 55 45 103 45 106 0 3 -11 3
-24 0 -14 -3 -28 -2 -31 4 -9 15 -48 12 -73 -6 -12 -8 -42 -55 -67 -104 -24
-48 -56 -97 -71 -109 -52 -41 -102 -19 -89 39 6 27 11 30 44 30 46 0 73 19 96
66 22 46 13 82 -22 90 -48 12 -74 -13 -133 -131 -36 -73 -61 -111 -74 -113
-40 -8 -39 15 4 109 45 98 46 114 2 134 -15 7 -21 17 -20 34 2 13 -3 26 -9 28
-8 3 -37 -46 -76 -129z m299 28 c12 -32 -51 -104 -73 -83 -13 14 37 97 58 97
5 0 12 -6 15 -14z m184 -10 c0 -22 -61 -149 -83 -173 -26 -29 -57 -30 -57 -3
0 20 61 151 82 178 14 17 58 16 58 -2z m554 -312 c9 -3 16 -17 16 -30 0 -32
-45 -54 -110 -54 -45 0 -110 21 -110 36 0 3 24 16 53 29 50 23 118 32 151 19z"/>
<path d="M894 1405 c-8 -19 4 -30 94 -91 117 -79 263 -124 414 -127 65 -1 101
2 110 11 20 20 2 25 -74 23 -175 -4 -336 53 -515 185 -21 15 -23 15 -29 -1z"/>
<path d="M851 1321 c-8 -5 -17 -26 -20 -47 -4 -22 -11 -37 -16 -34 -5 3 -8 11
-7 19 2 7 -1 10 -7 6 -6 -3 -11 -15 -11 -26 0 -16 6 -20 28 -17 23 3 28 8 32
42 3 22 11 41 18 44 7 2 10 -2 6 -12 -3 -9 -1 -16 6 -16 14 0 9 42 -5 47 -5 1
-16 -1 -24 -6z"/>
<path d="M886 1250 c-28 -34 -35 -80 -12 -80 18 0 63 57 68 85 5 32 -27 29
-56 -5z m44 1 c0 -14 -49 -68 -50 -55 0 11 38 64 46 64 2 0 4 -4 4 -9z"/>
<path d="M962 1238 c-17 -22 -53 -98 -46 -98 11 0 52 48 47 54 -3 3 0 12 7 21
9 11 17 12 31 4 13 -6 19 -6 19 0 0 9 -31 31 -43 31 -3 0 -9 -6 -15 -12z"/>
<path d="M1038 1208 c11 -14 11 -21 -1 -45 -21 -42 -30 -73 -19 -73 5 0 19 22
30 50 15 37 25 48 36 44 9 -3 16 -2 16 4 0 5 -8 12 -17 15 -10 2 -27 8 -38 13
-17 7 -18 6 -7 -8z"/>
<path d="M1156 1138 c-9 -12 -16 -40 -16 -61 0 -34 3 -38 22 -35 12 2 24 10
26 18 5 13 3 13 -11 1 -15 -12 -17 -10 -17 15 1 33 29 92 30 62 0 -10 5 -18
11 -18 17 0 6 34 -13 38 -9 2 -23 -7 -32 -20z"/>
<path d="M1225 1113 c-4 -21 -9 -50 -11 -65 -3 -16 -2 -28 3 -28 14 0 34 17
31 26 -1 5 3 19 10 31 8 15 9 29 2 47 -14 37 -28 32 -35 -11z"/>
<path d="M1296 1128 c-13 -41 -15 -102 -5 -114 13 -16 49 -19 49 -4 0 6 -9 10
-20 10 -30 0 -27 40 3 41 16 1 18 2 5 6 -11 3 -18 14 -18 29 0 18 5 24 23 24
18 0 19 2 7 10 -21 13 -40 12 -44 -2z"/>
<path d="M1376 1103 c-16 -84 -18 -103 -7 -103 6 0 11 11 11 25 0 14 5 25 10
25 6 0 10 -11 10 -25 0 -14 5 -25 11 -25 10 0 3 103 -8 123 -9 15 -22 6 -27
-20z"/>
<path d="M1480 1108 c-1 -21 -2 -21 -11 -5 -20 34 -32 18 -27 -38 4 -52 12
-74 23 -64 2 3 0 20 -5 39 -5 19 -7 36 -4 39 2 3 7 -5 11 -18 4 -17 8 -19 14
-9 6 9 9 5 9 -14 0 -15 5 -30 12 -34 8 -5 9 2 5 26 -4 18 -7 48 -7 66 0 19 -4
34 -10 34 -5 0 -10 -10 -10 -22z"/>
</g>
</svg>
